<?xml version="1.0" encoding="UTF-8"?><svg id="Layer_1" xmlns="http://www.w3.org/2000/svg" viewBox="0 0 86.003 44.986"><path d="M.558,22.494c.945-5.242,3.817-9.809,7.858-12.945,3.131-4.045,7.696-6.919,12.932-7.865-1.226-.221-2.485-.342-3.774-.342-4.872,0-9.356,1.655-12.932,4.43C1.869,9.35.215,13.838.215,18.717c0,1.288.123,2.551.343,3.777" style="fill:#f99d1c;"/><path d="M21.347,1.685c5.238.945,9.8,3.817,12.933,7.864,4.04,3.135,6.911,7.705,7.857,12.945.222-1.227.342-2.489.342-3.777,0-4.878-1.654-9.367-4.426-12.945-3.575-2.775-8.059-4.43-12.933-4.43-1.288,0-2.548.121-3.774.343" style="fill:#aa55a1;"/><path d="M8.416,9.549c3.574-2.775,8.06-4.431,12.932-4.431s9.358,1.656,12.933,4.431c-3.132-4.045-7.695-6.919-12.933-7.864-5.236.945-9.801,3.819-12.932,7.864" style="fill:#ffce7b;"/><path d="M21.347,43.299c-5.235-.945-9.801-3.818-12.932-7.86-4.041-3.136-6.912-7.704-7.858-12.946-.222,1.226-.343,2.487-.343,3.776,0,4.878,1.655,9.368,4.426,12.944,3.576,2.775,8.06,4.431,12.932,4.431,1.29,0,2.55-.123,3.774-.345" style="fill:#00aeef;"/><path d="M8.416,9.549c-4.041,3.134-6.912,7.703-7.858,12.945.946,5.241,3.817,9.808,7.858,12.946-2.772-3.579-4.427-8.067-4.427-12.946s1.655-9.368,4.427-12.945" style="fill:#c7eafb;"/><path d="M42.136,22.494c-.945,5.241-3.816,9.808-7.856,12.946-3.132,4.042-7.697,6.915-12.933,7.86,1.225.222,2.485.345,3.775.345,4.872,0,9.356-1.657,12.931-4.431,2.773-3.576,4.426-8.066,4.426-12.944,0-1.289-.12-2.55-.343-3.775" style="fill:#8dc63f;"/><path d="M8.416,35.439c3.131,4.042,7.696,6.915,12.932,7.86,5.238-.945,9.801-3.818,12.933-7.86-3.575,2.771-8.059,4.426-12.933,4.426s-9.358-1.655-12.932-4.426" style="fill:#c6de89;"/><path d="M34.28,35.439c4.04-3.136,6.911-7.705,7.856-12.946-.946-5.242-3.816-9.809-7.856-12.945,2.771,3.576,4.426,8.066,4.426,12.945s-1.655,9.367-4.426,12.946" style="fill:#d3b6d7;"/><path d="M8.416,9.549c-2.772,3.576-4.427,8.066-4.427,12.945s1.655,9.367,4.427,12.946c3.574,2.771,8.06,4.426,12.932,4.426s9.358-1.655,12.933-4.426c2.771-3.579,4.425-8.067,4.425-12.946s-1.654-9.368-4.425-12.945c-3.575-2.775-8.059-4.431-12.933-4.431s-9.358,1.656-12.932,4.431" style="fill:#fff;"/><path d="M22.948,15.472h2.172c.508,0,.648.197.675.678l.057.676c.79-.649,2.228-1.579,4.512-1.579,2.595,0,4.088,1.579,4.088,3.778v9.758c0,.507-.196.731-.705.731h-2.284c-.508,0-.734-.224-.734-.731v-8.827c0-1.015-.31-1.495-1.521-1.495-1.411,0-2.679.816-3.272,1.27v9.052c0,.507-.169.731-.648.731h-2.341c-.508,0-.704-.224-.704-.731v-12.634c0-.48.196-.678.704-.678M19.689,19.393v3.271c0,.451-.17.648-.62.648h-7.219v2.087c0,.986.535,1.55,2.2,1.55s2.197-.563,2.197-1.55v-.142c0-.479.199-.704.706-.704h1.975c.479,0,.704.225.704.704v.311c0,2.537-1.467,4.173-5.612,4.173s-5.78-1.636-5.78-4.173v-6.175c0-2.511,1.664-4.146,5.809-4.146,4.116,0,5.639,1.635,5.639,4.146M11.85,19.589v1.24h4.397v-1.24c0-.986-.619-1.551-2.197-1.551-1.609,0-2.2.565-2.2,1.551" style="fill:#aa55a1;"/><path d="M47.467,16.236c.353,0,.454.151.479.504l.05.782c.707-.555,2.069-1.489,4.188-1.489,2.448,0,3.557,1.362,3.557,3.431v6.055c0,2.068-1.11,3.431-3.557,3.431-2.044,0-3.406-.858-4.137-1.413v5.878c0,.328-.126.48-.454.48h-1.463c-.353,0-.479-.152-.479-.48v-16.677c0-.353.126-.504.479-.504h1.337ZM53.346,19.844c0-.883-.429-1.64-1.867-1.64-1.64,0-2.876.883-3.431,1.312v5.98c.555.403,1.791,1.287,3.431,1.287,1.438,0,1.867-.757,1.867-1.64v-5.298Z" style="fill:#aa55a1;"/><path d="M57.432,19.44c0-2.018,1.312-3.406,4.768-3.406,3.557,0,4.768,1.388,4.768,3.406v8.805c0,.353-.126.505-.454.505h-1.312c-.353,0-.454-.151-.48-.505l-.05-.732c-.731.581-2.069,1.438-3.986,1.438-2.346,0-3.557-1.413-3.557-3.053v-1.211c0-1.64,1.161-3.052,3.507-3.052h3.986v-1.943c0-1.034-.53-1.715-2.447-1.715s-2.498.605-2.498,1.64v.202c0,.353-.127.504-.48.504h-1.312c-.328,0-.454-.151-.454-.504v-.379ZM64.622,25.672v-2.17h-3.482c-1.262,0-1.665.555-1.665,1.539v.505c0,.984.555,1.413,1.817,1.413,1.539,0,2.75-.833,3.33-1.287" style="fill:#aa55a1;"/><path d="M75.193,16.034c-1.842,0-3.255,1.085-3.936,1.766l-.076-1.085c-.025-.327-.126-.479-.479-.479h-1.337c-.353,0-.479.151-.479.479v11.53c0,.353.126.505.479.505h1.463c.328,0,.454-.151.454-.505v-8.452c.58-.505,2.018-1.489,3.911-1.615.327-.025.504-.151.504-.504v-1.161c0-.328-.177-.48-.504-.48Z" style="fill:#aa55a1;"/><path d="M76.252,19.44c0-2.018,1.312-3.406,4.768-3.406,3.557,0,4.768,1.388,4.768,3.406v8.805c0,.353-.126.505-.454.505h-1.312c-.353,0-.454-.151-.48-.505l-.05-.732c-.731.581-2.069,1.438-3.986,1.438-2.346,0-3.557-1.413-3.557-3.053v-1.211c0-1.64,1.161-3.052,3.507-3.052h3.986v-1.943c0-1.034-.53-1.715-2.447-1.715s-2.498.605-2.498,1.64v.202c0,.353-.126.504-.48.504h-1.312c-.328,0-.454-.151-.454-.504v-.379ZM83.442,25.672v-2.17h-3.482c-1.262,0-1.665.555-1.665,1.539v.505c0,.984.555,1.413,1.817,1.413,1.539,0,2.749-.833,3.33-1.287" style="fill:#aa55a1;"/></svg>